<?xml version="1.0" encoding="UTF-8"?>
<svg id="Layer_2" data-name="Layer 2" xmlns="http://www.w3.org/2000/svg" viewBox="0 0 244.44 140.8">
  <defs>
    <style>
      .cls-1 {
        fill: #040404;
        stroke-width: 0px;
      }
    </style>
  </defs>
  <g id="Layer_1-2" data-name="Layer 1">
    <g>
      <g>
        <path class="cls-1" d="m6.53,132.24c.35.13.69.27,1.02.4.33.14.65.26.96.38.31.11.62.21.93.28.31.07.62.11.94.11h1.33c.22,0,.38.04.49.12.11.08.16.23.16.46,0,.27-.05.46-.16.56-.1.1-.27.15-.5.15h-1.18c.05.09.12.23.2.44.08.2.11.42.11.67,0,.26-.05.52-.16.78-.1.26-.28.49-.52.7-.24.21-.56.38-.95.5-.39.13-.88.19-1.44.19h-3.84c-1.28,0-2.25-.32-2.92-.96-.67-.64-1-1.52-1-2.64,0-.65.11-1.27.32-1.87.21-.6.46-1.1.75-1.5.04-.08.12-.08.23-.02l.9.49c.09.06.1.13.05.21-.2.31-.39.69-.57,1.13-.18.45-.27.92-.27,1.41,0,.45.07.83.22,1.14.15.31.35.56.6.75.25.19.54.32.86.4.32.08.67.12,1.03.12h3.63c.66,0,1.11-.1,1.37-.3s.39-.43.39-.71c0-.24-.07-.45-.22-.62-.15-.18-.37-.34-.66-.48-.29-.15-.65-.3-1.09-.45-.43-.15-.93-.33-1.49-.54-.1-.03-.13-.1-.1-.2l.36-.99c.03-.11.1-.15.2-.12Zm-2.7,8.56c-.11,0-.16-.06-.16-.16v-1.2c0-.11.05-.16.16-.16h1.12c.11,0,.16.05.16.16v1.2c0,.11-.05.16-.16.16h-1.12Zm2.01,0c-.11,0-.16-.06-.16-.16v-1.2c0-.11.05-.16.16-.16h1.12c.11,0,.16.05.16.16v1.2c0,.11-.06.16-.16.16h-1.12Z"/>
        <path class="cls-1" d="m16.67,134.8c-.52,0-.97-.07-1.36-.22s-.73-.38-1-.7c-.23.35-.53.57-.89.67-.36.09-.7.14-1,.14h-.71c-.44,0-.66-.22-.66-.66,0-.27.05-.45.16-.52.1-.07.27-.11.5-.11h.82c.12,0,.24-.02.36-.07.12-.05.23-.13.33-.25.1-.11.18-.27.24-.46.06-.19.09-.43.09-.72-.01-.11-.02-.22-.02-.32v-.34c0-1.26.28-2.17.84-2.74.56-.56,1.33-.85,2.3-.85s1.74.28,2.3.85c.56.56.84,1.48.84,2.74,0,.12,0,.24,0,.36,0,.12-.01.24-.02.35.01.56.12.94.34,1.14.21.2.44.3.68.3h.48c.22,0,.38.05.49.14.11.09.16.25.16.47,0,.29-.05.47-.16.55-.1.08-.27.12-.5.12h-.36c-.15,0-.32,0-.49-.02s-.35-.05-.52-.11c-.17-.05-.33-.13-.48-.24-.15-.1-.29-.24-.39-.42-.27.32-.61.55-1,.69-.39.14-.84.21-1.35.21Zm0-5.85c-.61,0-1.06.2-1.34.61-.28.41-.42.97-.42,1.69,0,.79.14,1.36.42,1.73s.73.54,1.34.54,1.06-.18,1.34-.54.42-.94.42-1.73c0-.72-.14-1.29-.42-1.69-.28-.41-.73-.61-1.34-.61Z"/>
        <path class="cls-1" d="m21.49,134.69c-.23,0-.4-.04-.5-.12-.1-.08-.16-.27-.16-.55,0-.22.05-.38.16-.47.11-.09.27-.14.49-.14h1.86c-.32-.54-.48-1.25-.48-2.15,0-.62.08-1.16.24-1.62.16-.45.38-.83.67-1.12.28-.29.62-.5.99-.64.38-.14.79-.21,1.24-.21.98,0,1.74.28,2.3.85.56.56.84,1.48.84,2.74,0,.62-.07,1.16-.22,1.59-.15.44-.36.79-.62,1.06-.27.27-.6.47-.99.59-.39.13-.82.19-1.31.19h-4.52Zm2.93-8.35c-.11,0-.16-.05-.16-.16v-1.2c0-.11.05-.16.16-.16h1.12c.11,0,.16.06.16.16v1.2c0,.11-.05.16-.16.16h-1.12Zm1.59,2.61c-.58,0-1.02.2-1.32.59-.3.39-.44.93-.44,1.61,0,.81.14,1.39.42,1.73s.73.52,1.34.52,1.06-.16,1.34-.48c.28-.32.42-.88.42-1.67,0-.72-.14-1.29-.42-1.69-.28-.41-.73-.61-1.34-.61Zm.41-2.61c-.11,0-.16-.05-.16-.16v-1.2c0-.11.05-.16.16-.16h1.12c.11,0,.16.06.16.16v1.2c0,.11-.05.16-.16.16h-1.12Z"/>
        <path class="cls-1" d="m30.3,137.96c-.11,0-.16-.05-.16-.16v-.95c0-.11.05-.16.16-.16h.38c.89,0,1.33-.47,1.33-1.4v-7.15c0-.11.05-.16.16-.16h1.05c.11,0,.16.05.16.16v4.16c0,.37.13.65.4.84s.63.28,1.08.28h.18c.22,0,.38.05.49.14.11.09.16.25.16.47,0,.29-.05.47-.16.55-.1.08-.27.12-.5.12h-.34c-.57,0-1.01-.18-1.32-.53v1.09c0,.89-.22,1.56-.67,2.02-.45.46-1.11.69-1.97.69h-.44Z"/>
        <path class="cls-1" d="m35.05,134.69c-.22,0-.38-.04-.49-.12-.11-.08-.16-.23-.16-.46,0-.27.05-.46.16-.56.1-.1.27-.15.5-.15h1.04c.27,0,.47-.06.6-.19.13-.13.19-.35.19-.68v-8.86c0-.11.05-.16.16-.16h1.05c.11,0,.16.05.16.16v8.94c0,.71-.15,1.24-.44,1.57-.3.33-.79.5-1.48.5h-1.28Z"/>
        <path class="cls-1" d="m41.94,134.52c0,.11-.05.16-.16.16h-1.05c-.11,0-.16-.05-.16-.16v-10.85c0-.11.05-.16.16-.16h1.05c.11,0,.16.05.16.16v10.85Z"/>
        <path class="cls-1" d="m58.64,134.69v.97c0,.28-.05.57-.16.85-.11.28-.29.53-.53.74-.25.21-.57.39-.97.52s-.89.2-1.45.2h-3.85c-1.28,0-2.26-.32-2.93-.96-.67-.64-1-1.52-1-2.64,0-.65.11-1.27.32-1.87.21-.6.46-1.1.75-1.5.04-.08.12-.08.23-.02l.9.49c.09.06.1.13.05.21-.2.31-.39.69-.57,1.13-.18.45-.27.92-.27,1.41,0,.45.07.83.22,1.14.15.31.35.56.6.75s.54.32.86.4c.32.08.67.12,1.03.12h3.63c.66,0,1.12-.1,1.37-.3.26-.2.39-.43.39-.71v-.95h-1.76c-.48,0-.92-.06-1.31-.19-.39-.13-.72-.32-.99-.59-.27-.27-.48-.62-.62-1.06-.14-.44-.21-.97-.21-1.59s.08-1.16.25-1.62c.16-.45.39-.83.67-1.12.28-.29.62-.5,1-.64.38-.14.79-.21,1.22-.21.98,0,1.74.28,2.3.85.56.56.84,1.48.84,2.74v2.15h1.15c.22,0,.38.05.49.14.11.09.16.25.16.47,0,.29-.05.47-.16.55-.1.08-.27.12-.5.12h-1.15Zm-4.73-8.35c-.11,0-.16-.05-.16-.16v-1.2c0-.11.05-.16.16-.16h1.12c.11,0,.16.06.16.16v1.2c0,.11-.05.16-.16.16h-1.12Zm1.59,2.61c-.56,0-.99.2-1.3.61-.31.41-.46.97-.46,1.69,0,.79.16,1.35.47,1.67.31.32.78.48,1.39.48h1.66v-2.15c0-.72-.14-1.29-.42-1.69-.28-.41-.73-.61-1.34-.61Zm.41-2.61c-.11,0-.16-.05-.16-.16v-1.2c0-.11.05-.16.16-.16h1.12c.11,0,.16.06.16.16v1.2c0,.11-.05.16-.16.16h-1.12Z"/>
        <path class="cls-1" d="m59.67,134.69c-.22,0-.38-.04-.49-.12-.11-.08-.16-.23-.16-.46,0-.27.05-.46.16-.56.1-.1.27-.15.5-.15h1.13c.27,0,.47-.06.6-.19.13-.13.19-.35.19-.68v-4.41c0-.11.05-.16.16-.16h1.05c.11,0,.16.05.16.16v4.49c0,.71-.15,1.24-.44,1.57-.3.33-.79.5-1.48.5h-1.38Zm.71,3.06c-.11,0-.16-.06-.16-.16v-1.2c0-.11.05-.16.16-.16h1.12c.11,0,.16.05.16.16v1.2c0,.11-.05.16-.16.16h-1.12Zm2.01,0c-.11,0-.16-.06-.16-.16v-1.2c0-.11.05-.16.16-.16h1.12c.11,0,.16.05.16.16v1.2c0,.11-.05.16-.16.16h-1.12Z"/>
        <path class="cls-1" d="m66.51,137.96c-.11,0-.16-.05-.16-.16v-.95c0-.11.05-.16.16-.16h1.97c.22,0,.42-.02.61-.07.19-.05.35-.13.48-.25.14-.11.24-.27.32-.48.08-.2.12-.46.12-.76v-.43h-1.76c-.48,0-.92-.06-1.31-.17-.39-.12-.72-.3-.99-.56-.27-.26-.48-.6-.62-1.03s-.21-.95-.21-1.58.08-1.17.25-1.64.4-.85.69-1.15.63-.53,1.01-.67c.38-.15.79-.22,1.22-.22.98,0,1.74.28,2.28.85.55.56.82,1.48.82,2.74v2.15h1.13c.22,0,.38.05.49.14s.16.25.16.47c0,.29-.05.47-.16.55-.1.08-.27.12-.5.12h-1.13v.39c0,.51-.07.95-.21,1.32-.14.36-.33.66-.58.89-.25.23-.55.4-.9.51-.35.11-.74.16-1.17.16h-2.04Zm1.78-9.01c-.55,0-.98.22-1.31.66-.32.44-.48,1.02-.48,1.74,0,.78.16,1.31.47,1.61.31.3.78.44,1.39.44h1.66v-2.15c0-.72-.13-1.29-.4-1.69-.27-.41-.71-.61-1.32-.61Z"/>
        <path class="cls-1" d="m77.56,134.69c-.35,0-.66-.07-.92-.21s-.47-.36-.61-.64c-.27.57-.84.85-1.71.85h-1.78c-.22,0-.38-.04-.49-.12-.11-.08-.16-.23-.16-.46,0-.27.05-.46.16-.56.1-.1.27-.15.5-.15h1.53c.27,0,.47-.06.6-.19.13-.13.19-.35.19-.68v-2.99c0-.11.06-.16.16-.16h1.05c.11,0,.16.06.16.16v2.75c0,.37.13.65.39.84s.61.28,1.05.28h.41c.27,0,.47-.06.6-.19.13-.13.19-.35.19-.68v-2.99c0-.11.06-.16.16-.16h1.05c.11,0,.16.06.16.16v2.81c0,.35.14.61.41.79.27.18.63.26,1.07.26h.38c.27,0,.47-.06.6-.19.13-.13.19-.35.19-.68v-4.41c0-.11.06-.16.16-.16h1.05c.11,0,.16.05.16.16v4.16c0,.37.13.65.4.84.27.19.63.28,1.08.28h.18c.22,0,.38.05.49.14s.16.25.16.47c0,.29-.05.47-.16.55-.1.08-.27.12-.5.12h-.35c-.35,0-.66-.07-.92-.21s-.47-.36-.61-.64c-.27.57-.84.85-1.71.85h-.79c-.35,0-.66-.07-.92-.21s-.47-.36-.61-.64c-.27.57-.84.85-1.71.85h-.79Z"/>
        <path class="cls-1" d="m86.08,134.69c-.22,0-.38-.04-.49-.12-.11-.08-.16-.23-.16-.46,0-.27.05-.46.16-.56.1-.1.27-.15.5-.15h1.12c.27,0,.47-.06.6-.19.13-.13.19-.35.19-.68v-4.41c0-.11.05-.16.16-.16h1.05c.11,0,.16.05.16.16v4.16c0,.37.13.65.4.84s.63.28,1.08.28h.2c.22,0,.38.05.49.14.11.09.16.25.16.47,0,.29-.05.47-.16.55-.1.08-.27.12-.5.12h-.36c-.35,0-.66-.07-.92-.21-.26-.14-.47-.36-.61-.64-.27.57-.84.85-1.71.85h-1.36Zm1-8.35c-.11,0-.16-.05-.16-.16v-1.2c0-.11.05-.16.16-.16h1.12c.11,0,.16.06.16.16v1.2c0,.11-.06.16-.16.16h-1.12Zm2.01,0c-.11,0-.16-.05-.16-.16v-1.2c0-.11.05-.16.16-.16h1.12c.11,0,.16.06.16.16v1.2c0,.11-.05.16-.16.16h-1.12Z"/>
        <path class="cls-1" d="m91.04,134.69c-.22,0-.38-.04-.49-.12-.11-.08-.16-.23-.16-.46,0-.27.05-.46.16-.56.1-.1.27-.15.5-.15h1.04c.27,0,.47-.06.6-.19s.19-.35.19-.68v-8.86c0-.11.05-.16.16-.16h1.05c.11,0,.16.05.16.16v8.94c0,.71-.15,1.24-.44,1.57-.3.33-.79.5-1.48.5h-1.28Z"/>
        <path class="cls-1" d="m97.93,134.52c0,.11-.06.16-.16.16h-1.05c-.11,0-.16-.05-.16-.16v-10.85c0-.11.05-.16.16-.16h1.05c.11,0,.16.05.16.16v10.85Z"/>
        <path class="cls-1" d="m104.83,130.99c.04-.08.12-.08.23-.02l.9.49c.09.06.1.13.05.21-.2.31-.39.69-.57,1.13-.18.45-.27.92-.27,1.41s.08.86.24,1.18c.16.31.36.56.62.74.25.18.53.31.82.39.3.08.59.11.87.11.7,0,1.28-.18,1.73-.54s.67-.95.67-1.76v-10.67c0-.11.05-.16.16-.16h1.05c.11,0,.16.05.16.16v10.69c0,1.13-.33,2.01-.99,2.65-.66.64-1.62.95-2.87.95-.59,0-1.13-.08-1.6-.24-.48-.16-.88-.39-1.22-.7-.33-.31-.59-.68-.78-1.13-.19-.44-.28-.96-.28-1.54,0-.65.11-1.27.32-1.87.21-.6.46-1.1.75-1.5Z"/>
        <path class="cls-1" d="m114.96,137.96c-.11,0-.16-.05-.16-.16v-.95c0-.11.05-.16.16-.16h1.97c.22,0,.42-.02.61-.07.19-.05.35-.13.48-.25.14-.11.24-.27.32-.48.08-.2.12-.46.12-.76v-.43h-1.76c-.48,0-.92-.06-1.31-.17-.39-.12-.72-.3-.99-.56-.27-.26-.48-.6-.62-1.03-.14-.43-.21-.95-.21-1.58s.08-1.17.26-1.64c.17-.47.4-.85.69-1.15.29-.3.63-.53,1.01-.67.38-.15.79-.22,1.22-.22.98,0,1.74.28,2.29.85.55.56.82,1.48.82,2.74v2.15h1.13c.22,0,.38.05.49.14.11.09.16.25.16.47,0,.29-.05.47-.16.55-.1.08-.27.12-.5.12h-1.13v.39c0,.51-.07.95-.21,1.32-.14.36-.33.66-.58.89-.25.23-.55.4-.9.51-.35.11-.74.16-1.17.16h-2.04Zm1.78-9.01c-.55,0-.98.22-1.31.66-.32.44-.48,1.02-.48,1.74,0,.78.16,1.31.47,1.61s.78.44,1.39.44h1.66v-2.15c0-.72-.13-1.29-.4-1.69-.27-.41-.71-.61-1.32-.61Z"/>
        <path class="cls-1" d="m120.99,134.69c-.22,0-.38-.04-.49-.12-.11-.08-.16-.23-.16-.46,0-.27.05-.46.16-.56.1-.1.27-.15.5-.15h1.04c.27,0,.47-.06.6-.19.13-.13.19-.35.19-.68v-8.86c0-.11.05-.16.16-.16h1.05c.11,0,.16.05.16.16v8.61c0,.37.13.65.4.84.27.19.63.28,1.08.28h.2c.22,0,.38.05.49.14s.16.25.16.47c0,.29-.05.47-.16.55-.1.08-.27.12-.5.12h-.36c-.35,0-.66-.07-.92-.21-.26-.14-.47-.36-.61-.64-.27.57-.84.85-1.71.85h-1.28Z"/>
        <path class="cls-1" d="m129.71,128.95c-.37,0-.72.08-1.03.23-.31.15-.59.36-.83.62-.07.08-.14.08-.23.02l-.72-.59c-.1-.08-.12-.15-.05-.23.31-.38.69-.7,1.14-.95.45-.25,1.01-.38,1.67-.38.76,0,1.38.12,1.86.35.48.24.87.55,1.15.93.28.38.48.83.59,1.33.11.5.17,1.03.17,1.56s-.05,1-.14,1.36-.24.65-.43.87-.44.38-.75.47c-.3.09-.66.14-1.06.14h-5.18c-.44,0-.66-.22-.66-.66,0-.27.05-.45.16-.52.1-.07.27-.11.5-.11h4.67c.31,0,.55-.02.74-.07.19-.05.33-.13.43-.25.1-.12.16-.28.2-.48s.05-.45.05-.75c0-.43-.04-.82-.12-1.18-.08-.36-.2-.66-.37-.92-.17-.26-.4-.45-.68-.59-.29-.14-.64-.21-1.07-.21Z"/>
        <path class="cls-1" d="m136.61,137.96c-.11,0-.16-.05-.16-.16v-.95c0-.11.05-.16.16-.16h1.97c.22,0,.42-.02.61-.07.19-.05.35-.13.48-.25.14-.11.24-.27.32-.48.08-.2.12-.46.12-.76v-.43h-1.76c-.48,0-.92-.06-1.31-.17-.39-.12-.72-.3-.99-.56-.27-.26-.48-.6-.62-1.03-.14-.43-.21-.95-.21-1.58s.08-1.17.25-1.64.39-.85.68-1.15.63-.53,1.01-.67c.38-.15.79-.22,1.23-.22.98,0,1.74.28,2.29.85.55.56.82,1.48.82,2.74v3.83c0,.51-.07.95-.21,1.32-.14.36-.33.66-.58.89-.25.23-.55.4-.9.51-.35.11-.74.16-1.17.16h-2.04Zm1.78-9.01c-.56,0-1,.22-1.31.66-.32.44-.48,1.02-.48,1.74,0,.78.16,1.31.47,1.61s.78.44,1.39.44h1.66v-2.15c0-.72-.13-1.29-.4-1.69-.27-.41-.71-.61-1.32-.61Z"/>
        <path class="cls-1" d="m148.32,130.99c.04-.08.12-.08.23-.02l.9.49c.09.06.1.13.05.21-.2.31-.39.69-.57,1.13-.18.45-.27.92-.27,1.41s.08.86.24,1.18c.16.31.36.56.62.74.25.18.53.31.82.39.3.08.59.11.87.11.7,0,1.28-.18,1.73-.54s.67-.95.67-1.76v-4.8c0-.11.05-.16.16-.16h1.05c.11,0,.16.06.16.16v4.82c0,1.13-.33,2.01-.99,2.65-.66.64-1.62.95-2.87.95-.59,0-1.13-.08-1.6-.24-.48-.16-.88-.39-1.22-.7-.33-.31-.59-.68-.78-1.13-.19-.44-.28-.96-.28-1.54,0-.65.11-1.27.32-1.87.21-.6.46-1.1.75-1.5Zm2.81-2.02c-.11,0-.16-.05-.16-.16v-1.2c0-.11.05-.16.16-.16h1.12c.11,0,.16.06.16.16v1.2c0,.11-.05.16-.16.16h-1.12Z"/>
        <path class="cls-1" d="m161.5,133.41h1.92c.27,0,.47-.06.6-.19.13-.13.19-.35.19-.68v-8.86c0-.11.05-.16.16-.16h1.05c.11,0,.16.05.16.16v8.83c.05.31.21.53.47.68.26.15.59.22.99.22h.18c.22,0,.38.05.49.14s.16.25.16.47c0,.29-.05.47-.16.55-.1.08-.27.12-.5.12h-.35c-.34,0-.64-.07-.9-.21-.26-.14-.47-.35-.62-.63-.25.56-.82.84-1.69.84h-6.79c-.11,0-.16-.05-.16-.16v-.95c0-.11.05-.16.16-.16h3.24v-7.41c0-.11.05-.16.16-.16h1.05c.11,0,.16.05.16.16v7.41Z"/>
        <path class="cls-1" d="m174.82,133.41c.11,0,.16.06.16.16v.95c0,.11-.06.16-.16.16h-7.58c-.44,0-.66-.22-.66-.66,0-.27.05-.45.16-.52.1-.07.27-.11.5-.11h1.87c-.26-.25-.47-.57-.65-.95-.18-.38-.27-.84-.27-1.38,0-.34.05-.71.15-1.11s.28-.77.55-1.11c.27-.34.63-.62,1.08-.85.46-.22,1.04-.34,1.75-.34.65,0,1.21.12,1.68.35.47.24.85.56,1.13.98.05.09.04.16-.05.23l-.72.59c-.09.07-.16.06-.23-.02-.49-.57-1.11-.85-1.86-.85-.68,0-1.18.2-1.51.6-.33.4-.49.9-.49,1.5,0,.41.07.75.2,1.04.13.29.28.52.45.71.17.19.34.33.52.42.18.09.31.16.41.19h3.57Z"/>
        <path class="cls-1" d="m181.16,133.41h1.92c.27,0,.47-.06.6-.19.13-.13.19-.35.19-.68v-8.86c0-.11.05-.16.16-.16h1.05c.11,0,.16.05.16.16v8.94c0,.71-.15,1.24-.44,1.57-.3.33-.79.5-1.48.5h-6.79c-.11,0-.16-.05-.16-.16v-.95c0-.11.05-.16.16-.16h3.24v-7.41c0-.11.06-.16.16-.16h1.05c.11,0,.16.05.16.16v7.41Zm-1.76,5.08c-.09-.13-.16-.28-.21-.45-.06-.17-.08-.36-.08-.57,0-.18.03-.36.08-.55.05-.19.15-.37.28-.53.13-.16.3-.29.52-.39s.48-.16.8-.16c.28,0,.54.05.76.15.22.1.4.24.53.43.03.08.03.13,0,.16l-.34.28c-.08.07-.14.08-.18.03-.1-.11-.21-.2-.35-.27-.13-.07-.28-.11-.44-.11-.31,0-.53.09-.68.28-.15.19-.22.41-.22.66s.06.45.19.63c.13.18.25.31.37.4h1.69c.07,0,.1.04.1.11v.46c0,.08-.03.11-.1.11h-3.34c-.07,0-.1-.04-.1-.11v-.46c0-.08.03-.11.1-.11h.62Z"/>
        <path class="cls-1" d="m188.94,134.52c0,.11-.05.16-.16.16h-1.05c-.11,0-.16-.05-.16-.16v-10.85c0-.11.05-.16.16-.16h1.05c.11,0,.16.05.16.16v10.85Z"/>
        <path class="cls-1" d="m192.39,137.96c-.11,0-.16-.05-.16-.16v-.95c0-.11.06-.16.16-.16h1.97c.22,0,.42-.02.61-.07.19-.05.35-.13.48-.25.14-.11.24-.27.32-.48.08-.2.12-.46.12-.76v-.43h-1.76c-.48,0-.92-.06-1.31-.17-.39-.12-.72-.3-.99-.56-.27-.26-.48-.6-.62-1.03-.14-.43-.21-.95-.21-1.58s.08-1.17.25-1.64c.16-.47.39-.85.68-1.15s.63-.53,1.01-.67c.38-.15.79-.22,1.23-.22.98,0,1.74.28,2.29.85.55.56.82,1.48.82,2.74v3.83c0,.51-.07.95-.21,1.32s-.33.66-.58.89c-.25.23-.55.4-.9.51-.35.11-.74.16-1.17.16h-2.04Zm1.78-9.01c-.56,0-1,.22-1.32.66-.32.44-.48,1.02-.48,1.74,0,.78.16,1.31.47,1.61.31.3.77.44,1.39.44h1.66v-2.15c0-.72-.13-1.29-.4-1.69-.27-.41-.71-.61-1.32-.61Z"/>
        <path class="cls-1" d="m207.63,127.67v-.71c0-.11.05-.16.16-.16h1.05c.11,0,.16.05.16.16v5.57c0,.33.06.56.19.68.13.13.33.19.6.19h.72c.44,0,.66.22.66.66,0,.27-.05.45-.16.52-.1.07-.27.11-.5.11h-.97c-.54,0-.96-.1-1.26-.3-.3-.2-.5-.54-.6-1.01-.22.2-.48.35-.79.44-.31.1-.64.15-1,.15-.43,0-.82-.06-1.19-.18-.37-.12-.69-.3-.95-.55-.27-.25-.48-.56-.63-.94s-.23-.82-.23-1.34c0-.61.09-1.13.26-1.55.18-.42.41-.75.69-1.01.28-.26.62-.44.99-.56.38-.12.77-.17,1.18-.17h1.61Zm-1.71,5.01c.62,0,1.07-.18,1.32-.55.26-.37.39-.88.39-1.54v-1.64h-1.61c-.52,0-.93.15-1.26.44-.32.29-.48.81-.48,1.57,0,.57.14,1,.43,1.29s.69.44,1.22.44Zm-1.43-7c-.11,0-.16-.05-.16-.16v-1.2c0-.11.05-.16.16-.16h1.12c.11,0,.16.05.16.16v1.2c0,.11-.05.16-.16.16h-1.12Zm2.01,0c-.11,0-.16-.05-.16-.16v-1.2c0-.11.05-.16.16-.16h1.12c.11,0,.16.05.16.16v1.2c0,.11-.06.16-.16.16h-1.12Z"/>
        <path class="cls-1" d="m210.52,134.69c-.22,0-.38-.04-.49-.12-.11-.08-.16-.23-.16-.46,0-.27.05-.46.16-.56.1-.1.27-.15.5-.15h1.13c.27,0,.47-.06.6-.19.13-.13.19-.35.19-.68v-4.41c0-.11.05-.16.16-.16h1.05c.11,0,.16.05.16.16v4.49c0,.71-.15,1.24-.44,1.57-.3.33-.79.5-1.48.5h-1.38Zm.71,3.06c-.11,0-.16-.06-.16-.16v-1.2c0-.11.05-.16.16-.16h1.12c.11,0,.16.05.16.16v1.2c0,.11-.05.16-.16.16h-1.12Zm2.01,0c-.11,0-.16-.06-.16-.16v-1.2c0-.11.05-.16.16-.16h1.12c.11,0,.16.05.16.16v1.2c0,.11-.05.16-.16.16h-1.12Z"/>
        <path class="cls-1" d="m216.21,123.67c0-.11.05-.16.16-.16h1.05c.11,0,.16.05.16.16v8.86c0,.33.06.56.19.68.13.13.33.19.6.19h.72c.44,0,.66.22.66.66,0,.27-.05.45-.16.52-.1.07-.27.11-.5.11h-.97c-.69,0-1.18-.17-1.48-.5-.3-.33-.44-.86-.44-1.57v-8.94Z"/>
        <path class="cls-1" d="m226.68,133.41c.11,0,.16.06.16.16v.95c0,.11-.06.16-.16.16h-7.58c-.44,0-.66-.22-.66-.66,0-.27.05-.45.16-.52.1-.07.27-.11.5-.11h1.87c-.26-.25-.47-.57-.65-.95-.18-.38-.27-.84-.27-1.38,0-.34.05-.71.15-1.11s.28-.77.55-1.11c.27-.34.63-.62,1.08-.85.46-.22,1.04-.34,1.75-.34.65,0,1.21.12,1.68.35.47.24.85.56,1.13.98.05.09.04.16-.05.23l-.72.59c-.09.07-.16.06-.23-.02-.49-.57-1.11-.85-1.86-.85-.68,0-1.18.2-1.51.6-.33.4-.49.9-.49,1.5,0,.41.07.75.2,1.04.13.29.28.52.45.71.17.19.34.33.52.42.18.09.31.16.41.19h3.57Z"/>
        <path class="cls-1" d="m234.72,132.29c0,.37.13.65.4.84.27.19.63.28,1.08.28h.18c.22,0,.38.05.49.14.11.09.16.25.16.47,0,.29-.05.47-.16.55-.1.08-.27.12-.5.12h-.35c-.37,0-.71-.08-1-.24-.3-.16-.51-.4-.63-.72-.19.36-.45.61-.78.75-.33.14-.76.21-1.29.21h-3.65c-.11,0-.16-.05-.16-.16v-.95c0-.11.05-.16.16-.16h3.14c.31,0,.55-.02.74-.07.19-.05.33-.13.43-.25.1-.11.16-.27.2-.45.03-.19.05-.42.05-.71v-1.32c0-1.11-.62-1.66-1.87-1.66h-1.91c-.11,0-.16-.05-.16-.16v-.95c0-.11.05-.16.16-.16h2.42c.83,0,1.51.24,2.05.71.53.47.8,1.21.8,2.22v1.69Z"/>
        <path class="cls-1" d="m236.37,134.69c-.22,0-.38-.04-.49-.12-.11-.08-.16-.23-.16-.46,0-.27.05-.46.16-.56.1-.1.27-.15.5-.15h1.04c.27,0,.47-.06.6-.19.13-.13.19-.35.19-.68v-8.86c0-.11.05-.16.16-.16h1.05c.11,0,.16.05.16.16v8.61c0,.37.13.65.4.84.27.19.63.28,1.08.28h.2c.22,0,.38.05.49.14.11.09.16.25.16.47,0,.29-.05.47-.16.55-.1.08-.27.12-.5.12h-.36c-.35,0-.66-.07-.92-.21-.26-.14-.47-.36-.61-.64-.27.57-.84.85-1.71.85h-1.28Z"/>
        <path class="cls-1" d="m241.23,134.69c-.22,0-.38-.04-.49-.12-.11-.08-.16-.23-.16-.46,0-.27.05-.46.16-.56.1-.1.27-.15.5-.15h1.04c.27,0,.47-.06.6-.19.13-.13.19-.35.19-.68v-8.86c0-.11.05-.16.16-.16h1.05c.11,0,.16.05.16.16v8.94c0,.71-.15,1.24-.44,1.57-.3.33-.79.5-1.48.5h-1.28Z"/>
      </g>
      <g>
        <g>
          <path class="cls-1" d="m89.96,109.22l-7.36-10.42-7.4,10.42-.96-18.72-.04-.57h-4.51l1.31,23.7h3.16l8.44-11.91,8.41,11.91h3.2l1.27-23.7h-4.51l-1,19.29Z"/>
          <path class="cls-1" d="m101.07,92.48v21.15h4.51v-9.78h10.41v9.78h4.51v-15.87c-.04-1.45-.19-2.89-.54-4.11-1.27-4.98-15.42-5.55-18.89-1.18Zm14.92,6.43v3.27h-10.41v-10.35c1.35-.46,3.01-.68,4.63-.68,2.54,0,5.09,1.14,5.48,3.35.19.99.27,2.13.31,3.27v1.14Z"/>
          <path class="cls-1" d="m125.71,89.66v23.97h4.51v-23.4l-4.51-.57Z"/>
          <polygon class="cls-1" points="142.17 93.54 145.84 89.93 143.52 89.93 130.22 103.06 131.38 104.2 140.94 113.63 147.34 113.63 134.58 101.04 142.17 93.54"/>
          <path class="cls-1" d="m151.5,89.66v23.97h4.51v-23.4l-4.51-.57Z"/>
          <polygon class="cls-1" points="167.97 93.54 171.63 89.93 169.32 89.93 156.02 103.06 157.17 104.2 166.74 113.63 173.14 113.63 160.37 101.04 167.97 93.54"/>
          <path class="cls-1" d="m186.25,112.38c-2.51,0-5.13-1.14-5.51-3.35-.15-1.07-.27-2.32-.27-3.58v-4.18h8.71v-1.64h-8.71v-7.8c1.31-.46,2.97-.68,5.21-.68h6.29v-1.64h-6.48c-4.05,0-7.87.87-9.52,2.97v12.97c0,1.56.15,3.08.5,4.41.73,2.74,5.24,4.15,9.79,4.15,2.47,0,4.97-.42,6.82-1.29l-1.23-1.45c-1.5.76-3.55,1.1-5.59,1.1Z"/>
          <path class="cls-1" d="m201.75,90.23l-4.51-.57v23.97h12.99v-1.6h-8.48v-21.8Z"/>
          <path class="cls-1" d="m230.13,107.43c-4.28-5.82-8.52-11.64-12.76-17.5h-2.01v23.7h4.51v-17.5l12.76,17.5h2.01v-23.97l-4.51.57v17.2Z"/>
          <path class="cls-1" d="m239.93,113.63h4.51v-23.4l-4.51-.57v23.97Z"/>
        </g>
        <g>
          <path class="cls-1" d="m142.07,15.51l.1.04,8.58-2.3c1.11-.3,2.07-.68,2.87-1.13,1.88-1.08,1.92-4.53,1.14-7.47-.47-1.77-1.22-3.31-2.1-4.35l-.25-.3-1.08,1.58.16.18c.68.76,1.26,1.95,1.64,3.34.4,1.48.16,3.28-1.05,3.84-.53.23-1.35.55-2.25.79l-2.45.66-1.53-5.7-1.65.44,1.53,5.7-4.6,1.23c-.47-.74-.85-1.71-1.2-3.02l-1.18-4.4-1.65.44,1.21,4.53c.82,3.07,2.2,5.22,3.78,5.91Z"/>
          <path class="cls-1" d="m243.3,30.82c-1.8-7.09-12.95-10.58-24.1-10.58s-22.21,3.5-23.91,10.4c-.85,3.31-1.23,7.18-1.23,10.96s.38,7.65,1.23,10.87c1.8,6.8,12.85,10.3,24.01,10.3,4.91,0,9.92-.66,14.08-2.08,0,2.74-.28,5.39-.66,7.66-.95,5.67-7.28,8.5-13.51,8.5v3.97c11.15,0,22.3-3.5,24-10.4.76-2.93,1.14-6.33,1.23-9.74v-19.28c0-3.69-.37-7.47-1.13-10.58Zm-9.92,24.95c-3.69,2.08-8.89,3.02-14.08,3.02-6.24,0-12.57-2.83-13.52-8.32-.47-2.65-.66-5.77-.66-8.88s.19-6.24.66-8.89c.95-5.58,7.28-8.41,13.42-8.41s12.48,2.83,13.51,8.51c.47,2.65.66,5.67.66,8.69v14.27Z"/>
          <path class="cls-1" d="m138.34,40.66c.68-.33,1.36-.64,2.03-1l15.56-10.12v.05c4.91.88,9.09,3.58,9.92,8.16.47,2.55.66,5.58.66,8.6v14.37c-3.69,2.08-21.68,3.02-26.88,3.02-6.24,0-12.39-3.14-13.34-8.62-.38-2.12-.57-4.54-.68-7.01v-2.05h-.07V9.36l-11.06-1.42v38.3c0,.63.02,1.25.04,1.88h-.04c.02.59.04,1.18.08,1.77v10.83c-3.69,2.08-8.29,2.72-13.48,2.72-6.24,0-12.57-2.83-13.52-8.32-.33-1.83-.49-3.9-.57-6.02v-22.93h-11.06v21.65h0c0,.08,0,.17,0,.25v11.74c-3.23,1.82-7.71,2.73-12.26,2.93-.46.02-.92.03-1.39.03-4.78,0-9.55-1.67-11.94-4.91l-2.15-3.62h-10.23c.13.75.22,1.51.41,2.2.97,3.89,5.03,6.69,10.39,8.39v25.52c-3.64,2.05-8.84,3.01-13.99,3.03-.06,0-10.45,0-10.51,0-6.24,0-12.46-2.84-13.41-8.32-.18-.98.32-33.81.21-34.9L0,48.48c.22,1.82-.05,36.98.37,38.58,1.7,6.79,12.86,10.3,23.9,10.3h10.44c7.62-.02,14.97-2.54,21.34-6.62l3.79-2.42v-21.63c.82.04,1.64.06,2.46.06.72,0,1.43-.02,2.15-.05v-.06c4.27-.19,8.46-.78,11.97-2.1l5.07-1.83c4.62,3.12,12.09,4.7,19.6,4.7,5.01,0,9.41-.36,13.48-1.78l7.33-1.53c4.63,2.39,11.17,3.61,17.75,3.61,5.01,0,22.81-.66,26.88-2.08l11.06,1.42v-21.36c0-3.5-.37-6.99-1.13-9.92-1.3-5.13-7.51-8.37-15.06-9.77l26.55-17.26V0l-49.59,32.27v8.39Z"/>
          <path class="cls-1" d="m88.36,16.36c.47-1.61.47-3.87,0-5.58-.95-3.78-11.81-3.78-12.76-.09-.37,1.8-.37,4.16,0,5.86.95,3.59,11.81,3.68,12.76-.19Z"/>
          <path class="cls-1" d="m31.55,105.03c-.37,1.8-.37,4.16,0,5.86.95,3.59,11.81,3.68,12.76-.19.47-1.61.47-3.87,0-5.58-.95-3.78-11.81-3.78-12.76-.09Z"/>
          <path class="cls-1" d="m15.74,105.03c-.37,1.8-.37,4.16,0,5.86.95,3.59,11.81,3.68,12.76-.19.47-1.61.47-3.87,0-5.58-.95-3.78-11.81-3.78-12.76-.09Z"/>
        </g>
      </g>
    </g>
  </g>
</svg>